<svg xmlns="http://www.w3.org/2000/svg" xmlns:xlink="http://www.w3.org/1999/xlink" width="500" zoomAndPan="magnify" viewBox="0 0 375 374.999991" height="500" preserveAspectRatio="xMidYMid meet" version="1.0"><defs><g/></defs><path fill="#6667ab" d="M 59.421875 185.902344 L 39.941406 185.902344 C 35.46875 185.902344 35.46875 192.835938 39.941406 192.835938 L 59.421875 192.835938 C 63.890625 192.835938 63.890625 185.902344 59.421875 185.902344 Z M 59.421875 185.902344 " fill-opacity="1" fill-rule="nonzero"/><path fill="#6667ab" d="M 78.820312 122.34375 L 61.414062 112.671875 C 57.5 110.496094 54.003906 116.484375 57.914062 118.65625 L 75.324219 128.332031 C 79.234375 130.503906 82.730469 124.515625 78.820312 122.34375 Z M 78.820312 122.34375 " fill-opacity="1" fill-rule="nonzero"/><path fill="#6667ab" d="M 126.117188 76.71875 L 116.636719 59.933594 C 114.4375 56.042969 108.449219 59.535156 110.648438 63.433594 L 120.128906 80.21875 C 122.328125 84.113281 128.316406 80.621094 126.117188 76.71875 Z M 126.117188 76.71875 " fill-opacity="1" fill-rule="nonzero"/><path fill="#6667ab" d="M 190.8125 61.488281 L 190.8125 41.964844 C 190.8125 37.492188 183.878906 37.492188 183.878906 41.964844 L 183.878906 61.488281 C 183.878906 65.960938 190.8125 65.960938 190.8125 61.488281 Z M 190.8125 61.488281 " fill-opacity="1" fill-rule="nonzero"/><path fill="#6667ab" d="M 254.683594 80.773438 L 264.039062 63.433594 C 266.164062 59.5 260.175781 56 258.054688 59.933594 L 248.695312 77.273438 C 246.574219 81.207031 252.558594 84.707031 254.683594 80.773438 Z M 254.683594 80.773438 " fill-opacity="1" fill-rule="nonzero"/><path fill="#6667ab" d="M 299.613281 128.882812 L 316.773438 118.65625 C 320.609375 116.371094 317.125 110.375 313.273438 112.667969 L 296.113281 122.894531 C 292.277344 125.179688 295.761719 131.175781 299.613281 128.882812 Z M 299.613281 128.882812 " fill-opacity="1" fill-rule="nonzero"/><path fill="#6667ab" d="M 314.921875 192.835938 L 334.75 192.835938 C 339.21875 192.835938 339.21875 185.902344 334.75 185.902344 L 314.921875 185.902344 C 310.449219 185.902344 310.449219 192.835938 314.921875 192.835938 Z M 314.921875 192.835938 " fill-opacity="1" fill-rule="nonzero"/><path fill="#6667ab" d="M 188.144531 180.519531 L 187.660156 180.519531 C 182.933594 180.519531 178.992188 184.464844 178.992188 189.1875 C 178.992188 193.914062 182.933594 197.855469 187.660156 197.855469 L 188.144531 197.855469 C 192.871094 197.855469 196.8125 193.914062 196.8125 189.1875 C 196.8125 184.464844 192.871094 180.519531 188.144531 180.519531 Z M 188.144531 180.519531 " fill-opacity="1" fill-rule="nonzero"/><path fill="#6667ab" d="M 189.332031 189.699219 L 189.332031 111.824219 C 189.332031 109.589844 185.863281 109.589844 185.863281 111.824219 L 185.863281 189.699219 C 185.863281 191.9375 189.332031 191.9375 189.332031 189.699219 Z M 189.332031 189.699219 " fill-opacity="1" fill-rule="nonzero"/><path fill="#6667ab" d="M 188.539062 188.3125 L 137.191406 99.460938 L 133.082031 92.351562 C 131.964844 90.417969 128.96875 92.164062 130.089844 94.101562 L 181.4375 182.953125 L 185.546875 190.0625 C 186.664062 191.996094 189.660156 190.25 188.539062 188.3125 Z M 188.539062 188.3125 " fill-opacity="1" fill-rule="nonzero"/><g fill="#6667ab" fill-opacity="1"><g transform="translate(60.93593, 282.101902)"><g><path d="M 50.320312 -62.511719 L 1.5625 -62.511719 L 5 -58.136719 C 11.722656 -60.792969 17.738281 -61.261719 21.175781 -61.261719 L 22.113281 -61.261719 L 22.113281 -15.394531 C 22.113281 -9.6875 21.957031 -6.5625 21.488281 0 L 30.394531 0 C 29.925781 -6.5625 29.769531 -9.6875 29.769531 -15.394531 L 29.769531 -61.261719 L 30.707031 -61.261719 C 34.148438 -61.261719 40.164062 -60.792969 46.882812 -58.136719 Z M 50.320312 -62.511719 "/></g></g></g><g fill="#6667ab" fill-opacity="1"><g transform="translate(112.810527, 282.101902)"><g><path d="M 5.46875 -62.511719 C 5.9375 -55.945312 6.09375 -52.820312 6.09375 -47.117188 L 6.09375 -15.394531 C 6.09375 -9.6875 5.9375 -6.5625 5.46875 0 L 14.378906 0 C 13.910156 -6.5625 13.753906 -9.6875 13.753906 -15.394531 L 13.753906 -47.117188 C 13.753906 -52.820312 13.910156 -55.945312 14.378906 -62.511719 Z M 5.46875 -62.511719 "/></g></g></g><g fill="#6667ab" fill-opacity="1"><g transform="translate(132.654115, 282.101902)"><g><path d="M 5.46875 0 L 7.96875 0 C 7.421875 -6.5625 7.34375 -9.6875 7.34375 -15.394531 L 7.34375 -58.527344 L 34.382812 1.5625 L 35.789062 1.5625 L 61.496094 -58.761719 L 61.496094 -15.394531 C 61.496094 -9.6875 61.417969 -6.5625 60.949219 0 L 69.855469 0 C 69.308594 -6.5625 69.230469 -9.6875 69.230469 -15.394531 L 69.230469 -47.117188 C 69.230469 -52.820312 69.308594 -55.945312 69.855469 -62.511719 L 61.808594 -62.511719 L 38.523438 -8.828125 L 14.066406 -62.511719 L 5.46875 -62.511719 C 5.9375 -55.945312 6.09375 -52.820312 6.09375 -47.117188 L 6.09375 -15.394531 C 6.09375 -9.6875 5.9375 -6.5625 5.46875 0 Z M 5.46875 0 "/></g></g></g><g fill="#6667ab" fill-opacity="1"><g transform="translate(207.966016, 282.101902)"><g><path d="M 5.46875 -62.511719 C 6.09375 -55.945312 6.171875 -52.820312 6.171875 -47.117188 L 6.171875 -15.394531 C 6.171875 -9.6875 6.09375 -6.5625 5.46875 0 L 42.195312 0 L 44.460938 -4.21875 C 35.710938 -1.640625 30.394531 -1.25 22.660156 -1.25 L 13.910156 -1.25 L 13.910156 -32.503906 L 18.910156 -32.503906 C 23.050781 -32.503906 27.269531 -32.503906 34.539062 -31.722656 L 34.539062 -34.539062 C 27.269531 -33.757812 23.050781 -33.757812 18.910156 -33.757812 L 13.910156 -33.757812 L 13.910156 -61.261719 L 21.019531 -61.261719 C 24.535156 -61.261719 32.191406 -60.792969 38.835938 -58.136719 L 42.351562 -62.511719 Z M 5.46875 -62.511719 "/></g></g></g><g fill="#6667ab" fill-opacity="1"><g transform="translate(254.762527, 282.101902)"><g><path d="M 41.648438 -14.847656 C 37.898438 -24.222656 32.191406 -27.816406 25.394531 -29.066406 C 36.882812 -29.925781 45.945312 -33.914062 45.945312 -45.710938 C 45.945312 -59.308594 33.835938 -62.511719 19.925781 -62.511719 L 5.46875 -62.511719 C 5.9375 -55.945312 6.09375 -52.820312 6.09375 -47.117188 L 6.09375 -15.394531 C 6.09375 -9.6875 5.9375 -6.5625 5.46875 0 L 14.378906 0 C 13.910156 -6.5625 13.753906 -9.6875 13.753906 -15.394531 L 13.753906 -28.910156 L 16.566406 -28.910156 C 24.613281 -28.910156 29.457031 -26.566406 33.835938 -14.300781 C 37.664062 -3.359375 43.523438 0 56.417969 0 L 56.417969 -1.171875 C 49.148438 -1.171875 45.632812 -4.375 41.648438 -14.847656 Z M 13.753906 -30.160156 L 13.753906 -61.261719 L 19.847656 -61.261719 C 28.988281 -61.261719 37.976562 -58.136719 37.976562 -45.710938 C 37.976562 -33.285156 28.988281 -30.160156 19.847656 -30.160156 Z M 13.753906 -30.160156 "/></g></g></g><g fill="#6667ab" fill-opacity="1"><g transform="translate(20.811238, 332.417645)"><g><path d="M 23.433594 -17.5625 L 23.433594 -17.460938 C 24.835938 -17.160156 25.765625 -16.734375 24.910156 -14.550781 L 20.070312 -2.105469 L 15.378906 -14.550781 C 14.527344 -16.785156 15.503906 -17.308594 17.261719 -17.460938 L 17.261719 -17.5625 L 10.160156 -17.5625 C 10.535156 -17.234375 11.011719 -16.507812 11.265625 -15.855469 L 13.546875 -9.984375 L 10.410156 -2.105469 L 5.71875 -14.550781 C 4.867188 -16.785156 5.84375 -17.308594 7.601562 -17.460938 L 7.601562 -17.5625 L 0.5 -17.5625 C 0.878906 -17.234375 1.355469 -16.507812 1.605469 -15.855469 L 7.925781 0.425781 L 7.851562 0.953125 L 10.460938 -0.851562 L 13.824219 -9.257812 L 17.585938 0.425781 L 17.511719 0.953125 L 20.121094 -0.851562 L 25.464844 -14.527344 C 26.316406 -16.707031 26.996094 -17.160156 28.046875 -17.460938 L 28.046875 -17.5625 Z M 23.433594 -17.5625 "/></g></g></g><g fill="#6667ab" fill-opacity="1"><g transform="translate(55.873567, 332.417645)"><g><path d="M 19.695312 -17.4375 L 19.695312 -17.5625 L 12.445312 -17.5625 L 12.445312 -17.4375 C 13.472656 -17.308594 14.351562 -17.035156 14.351562 -16.132812 L 14.351562 -8.882812 L 5.71875 -8.882812 L 5.71875 -16.132812 C 5.71875 -17.035156 6.597656 -17.308594 7.625 -17.4375 L 7.625 -17.5625 L 0.375 -17.5625 L 0.375 -17.4375 C 1.40625 -17.308594 2.28125 -17.035156 2.28125 -16.132812 L 2.28125 -1.429688 C 2.28125 -0.527344 1.40625 -0.25 0.375 -0.125 L 0.375 0 L 7.625 0 L 7.625 -0.125 C 6.597656 -0.25 5.71875 -0.527344 5.71875 -1.429688 L 5.71875 -8.453125 L 14.351562 -8.453125 L 14.351562 -1.429688 C 14.351562 -0.527344 13.472656 -0.25 12.445312 -0.125 L 12.445312 0 L 19.695312 0 L 19.695312 -0.125 C 18.664062 -0.25 17.785156 -0.527344 17.785156 -1.429688 L 17.785156 -16.132812 C 17.785156 -17.035156 18.664062 -17.308594 19.695312 -17.4375 Z M 19.695312 -17.4375 "/></g></g></g><g fill="#6667ab" fill-opacity="1"><g transform="translate(82.459498, 332.417645)"><g><path d="M 17.835938 -3.160156 L 12.542969 -16.53125 C 12.015625 -17.835938 11.964844 -18.136719 11.964844 -18.289062 L 9.007812 -16.707031 L 8.53125 -16.433594 L 8.578125 -15.703125 L 3.085938 -3.035156 C 2.15625 -0.878906 1.554688 -0.402344 0.5 -0.101562 L 0.5 0 L 5.117188 0 L 5.117188 -0.101562 C 3.714844 -0.402344 2.710938 -0.851562 3.636719 -3.011719 L 4.191406 -4.265625 L 13.773438 -4.265625 L 14.273438 -3.011719 C 15.152344 -0.804688 14.148438 -0.25 12.394531 -0.101562 L 12.394531 0 L 20.320312 0 L 20.320312 -0.101562 C 19.191406 -0.25 18.742188 -0.851562 17.835938 -3.160156 Z M 4.363281 -4.714844 L 9.15625 -15.78125 L 13.597656 -4.714844 Z M 4.363281 -4.714844 "/></g></g></g><g fill="#6667ab" fill-opacity="1"><g transform="translate(109.797766, 332.417645)"><g><path d="M 17.511719 -17.5625 L 1.078125 -17.5625 L 0.25 -12.394531 L 0.351562 -12.394531 C 1.78125 -15.78125 3.285156 -17.160156 7.023438 -17.183594 L 7.023438 -1.679688 C 7.023438 -0.527344 6.144531 -0.25 4.617188 -0.125 L 4.617188 0 L 12.871094 0 L 12.871094 -0.125 C 11.339844 -0.25 10.460938 -0.527344 10.460938 -1.679688 L 10.460938 -17.183594 L 11.414062 -17.183594 C 14.226562 -17.183594 16.132812 -15.804688 15.804688 -12.394531 L 15.90625 -12.394531 Z M 17.511719 -17.5625 "/></g></g></g><g fill="#6667ab" fill-opacity="1"><g transform="translate(134.076497, 332.417645)"><g><path d="M 17.511719 -17.5625 L 1.078125 -17.5625 L 0.25 -12.394531 L 0.351562 -12.394531 C 1.78125 -15.78125 3.285156 -17.160156 7.023438 -17.183594 L 7.023438 -1.679688 C 7.023438 -0.527344 6.144531 -0.25 4.617188 -0.125 L 4.617188 0 L 12.871094 0 L 12.871094 -0.125 C 11.339844 -0.25 10.460938 -0.527344 10.460938 -1.679688 L 10.460938 -17.183594 L 11.414062 -17.183594 C 14.226562 -17.183594 16.132812 -15.804688 15.804688 -12.394531 L 15.90625 -12.394531 Z M 17.511719 -17.5625 "/></g></g></g><g fill="#6667ab" fill-opacity="1"><g transform="translate(158.355227, 332.417645)"><g><path d="M 0.375 0 L 7.625 0 L 7.625 -0.125 C 6.597656 -0.25 5.71875 -0.527344 5.71875 -1.429688 L 5.71875 -16.132812 C 5.71875 -17.035156 6.597656 -17.308594 7.625 -17.4375 L 7.625 -17.5625 L 0.375 -17.5625 L 0.375 -17.4375 C 1.40625 -17.308594 2.28125 -17.035156 2.28125 -16.132812 L 2.28125 -1.429688 C 2.28125 -0.527344 1.40625 -0.25 0.375 -0.125 Z M 0.375 0 "/></g></g></g><g fill="#6667ab" fill-opacity="1"><g transform="translate(172.87858, 332.417645)"><g><path d="M 22.304688 -17.4375 L 22.304688 -17.5625 L 16.960938 -17.5625 L 11.339844 -4.238281 L 4.667969 -17.5625 L 0.25 -17.5625 C 1.328125 -16.757812 1.804688 -16.003906 2.28125 -15.050781 L 2.28125 -3.9375 C 2.28125 -0.527344 1.40625 -0.25 0.375 -0.125 L 0.375 0 L 4.691406 0 L 4.691406 -0.125 C 3.664062 -0.25 2.785156 -1.027344 2.785156 -4.441406 L 2.785156 -14.050781 L 9.960938 0.277344 L 16.960938 -16.257812 L 16.960938 -1.429688 C 16.960938 -0.527344 16.082031 -0.25 15.050781 -0.125 L 15.050781 0 L 22.304688 0 L 22.304688 -0.125 C 21.273438 -0.25 20.394531 -0.527344 20.394531 -1.429688 L 20.394531 -16.132812 C 20.394531 -17.035156 21.273438 -17.308594 22.304688 -17.4375 Z M 22.304688 -17.4375 "/></g></g></g><g fill="#6667ab" fill-opacity="1"><g transform="translate(202.072628, 332.417645)"><g><path d="M 15.90625 -5.34375 C 13.847656 -1.980469 12.269531 -0.402344 9.03125 -0.402344 L 5.71875 -0.402344 L 5.71875 -8.578125 L 7.828125 -8.578125 C 10.9375 -8.578125 12.117188 -7.902344 12.71875 -5.621094 L 12.71875 -11.964844 C 12.117188 -9.660156 10.9375 -8.980469 7.828125 -8.980469 L 5.71875 -8.980469 L 5.71875 -17.160156 L 8.882812 -17.160156 C 12.117188 -17.160156 13.09375 -15.90625 15.003906 -13.09375 L 15.101562 -13.144531 L 14.175781 -17.5625 L 0.375 -17.5625 L 0.375 -17.4375 C 1.40625 -17.308594 2.28125 -17.035156 2.28125 -16.132812 L 2.28125 -1.933594 C 2.28125 -1.027344 1.40625 -0.5 0.375 -0.125 L 0.375 0 L 13.671875 0 L 14.527344 0.550781 L 14.675781 0 L 16.003906 -5.292969 Z M 15.90625 -5.34375 "/></g></g></g><g fill="#6667ab" fill-opacity="1"><g transform="translate(224.972082, 332.417645)"><g><path d="M 0.375 0 L 7.625 0 L 7.625 -0.125 C 6.597656 -0.25 5.71875 -0.527344 5.71875 -1.429688 L 5.71875 -16.132812 C 5.71875 -17.035156 6.597656 -17.308594 7.625 -17.4375 L 7.625 -17.5625 L 0.375 -17.5625 L 0.375 -17.4375 C 1.40625 -17.308594 2.28125 -17.035156 2.28125 -16.132812 L 2.28125 -1.429688 C 2.28125 -0.527344 1.40625 -0.25 0.375 -0.125 Z M 0.375 0 "/></g></g></g><g fill="#6667ab" fill-opacity="1"><g transform="translate(239.495434, 332.417645)"><g><path d="M 8.832031 -10.488281 C 6.195312 -11.089844 3.9375 -11.867188 3.9375 -14.5 C 3.9375 -15.90625 4.566406 -17.535156 6.949219 -17.535156 C 9.707031 -17.535156 12.519531 -15.402344 12.066406 -11.964844 L 14.449219 -15.628906 C 13.121094 -16.910156 11.039062 -17.914062 8.128906 -17.914062 C 4.089844 -17.914062 1.453125 -16.003906 1.453125 -12.921875 C 1.453125 -10.761719 2.785156 -8.230469 7.652344 -7.101562 C 10.636719 -6.398438 12.316406 -5.769531 12.316406 -3.539062 C 12.316406 -2.207031 11.714844 -0.0507812 8.78125 -0.0507812 C 5.945312 -0.0507812 2.984375 -2.207031 3.3125 -5.667969 L 1.003906 -2.007812 C 2.359375 -0.703125 4.742188 0.351562 7.777344 0.351562 C 12.191406 0.351562 14.75 -2.007812 14.75 -5.066406 C 14.75 -6.925781 13.773438 -9.359375 8.832031 -10.488281 Z M 8.832031 -10.488281 "/></g></g></g><g fill="#6667ab" fill-opacity="1"><g transform="translate(261.767924, 332.417645)"><g><path d="M 0.375 0 L 7.625 0 L 7.625 -0.125 C 6.597656 -0.25 5.71875 -0.527344 5.71875 -1.429688 L 5.71875 -16.132812 C 5.71875 -17.035156 6.597656 -17.308594 7.625 -17.4375 L 7.625 -17.5625 L 0.375 -17.5625 L 0.375 -17.4375 C 1.40625 -17.308594 2.28125 -17.035156 2.28125 -16.132812 L 2.28125 -1.429688 C 2.28125 -0.527344 1.40625 -0.25 0.375 -0.125 Z M 0.375 0 "/></g></g></g><g fill="#6667ab" fill-opacity="1"><g transform="translate(276.291277, 332.417645)"><g><path d="M 17.511719 -17.5625 L 1.078125 -17.5625 L 0.25 -12.394531 L 0.351562 -12.394531 C 1.78125 -15.78125 3.285156 -17.160156 7.023438 -17.183594 L 7.023438 -1.679688 C 7.023438 -0.527344 6.144531 -0.25 4.617188 -0.125 L 4.617188 0 L 12.871094 0 L 12.871094 -0.125 C 11.339844 -0.25 10.460938 -0.527344 10.460938 -1.679688 L 10.460938 -17.183594 L 11.414062 -17.183594 C 14.226562 -17.183594 16.132812 -15.804688 15.804688 -12.394531 L 15.90625 -12.394531 Z M 17.511719 -17.5625 "/></g></g></g><g fill="#6667ab" fill-opacity="1"><g transform="translate(300.570007, 332.417645)"><g><path d="M 3.136719 0.175781 C 4.089844 0.175781 4.96875 -0.628906 4.96875 -1.707031 C 4.96875 -2.710938 4.089844 -3.460938 3.136719 -3.460938 C 2.132812 -3.460938 1.253906 -2.710938 1.253906 -1.707031 C 1.253906 -0.628906 2.132812 0.175781 3.136719 0.175781 Z M 3.136719 0.175781 "/></g></g></g><g fill="#6667ab" fill-opacity="1"><g transform="translate(313.312819, 332.417645)"><g><path d="M 9.558594 0.351562 C 13.421875 0.351562 16.308594 -2.105469 16.308594 -6.699219 L 16.308594 -14.074219 C 16.308594 -17.058594 17.183594 -17.335938 18.214844 -17.460938 L 18.214844 -17.585938 L 13.621094 -17.585938 L 13.621094 -17.460938 C 14.902344 -17.335938 15.78125 -16.558594 15.78125 -13.574219 L 15.78125 -6.398438 C 15.78125 -2.207031 12.769531 -0.550781 10.4375 -0.550781 C 8.503906 -0.550781 5.71875 -1.679688 5.71875 -6.347656 L 5.71875 -16.132812 C 5.71875 -17.035156 6.597656 -17.308594 7.625 -17.4375 L 7.625 -17.5625 L 0.375 -17.5625 L 0.375 -17.4375 C 1.40625 -17.308594 2.28125 -17.035156 2.28125 -16.132812 L 2.28125 -6.648438 C 2.28125 -0.878906 6.824219 0.351562 9.558594 0.351562 Z M 9.558594 0.351562 "/></g></g></g><g fill="#6667ab" fill-opacity="1"><g transform="translate(338.419141, 332.417645)"><g><path d="M 8.832031 -10.488281 C 6.195312 -11.089844 3.9375 -11.867188 3.9375 -14.5 C 3.9375 -15.90625 4.566406 -17.535156 6.949219 -17.535156 C 9.707031 -17.535156 12.519531 -15.402344 12.066406 -11.964844 L 14.449219 -15.628906 C 13.121094 -16.910156 11.039062 -17.914062 8.128906 -17.914062 C 4.089844 -17.914062 1.453125 -16.003906 1.453125 -12.921875 C 1.453125 -10.761719 2.785156 -8.230469 7.652344 -7.101562 C 10.636719 -6.398438 12.316406 -5.769531 12.316406 -3.539062 C 12.316406 -2.207031 11.714844 -0.0507812 8.78125 -0.0507812 C 5.945312 -0.0507812 2.984375 -2.207031 3.3125 -5.667969 L 1.003906 -2.007812 C 2.359375 -0.703125 4.742188 0.351562 7.777344 0.351562 C 12.191406 0.351562 14.75 -2.007812 14.75 -5.066406 C 14.75 -6.925781 13.773438 -9.359375 8.832031 -10.488281 Z M 8.832031 -10.488281 "/></g></g></g></svg>